<?xml version="1.0" encoding="UTF-8" standalone="no"?>
<!-- Created with Inkscape (http://www.inkscape.org/) -->

<svg
   xmlns:dc="http://purl.org/dc/elements/1.1/"
   xmlns:cc="http://creativecommons.org/ns#"
   xmlns:rdf="http://www.w3.org/1999/02/22-rdf-syntax-ns#"
   xmlns:svg="http://www.w3.org/2000/svg"
   xmlns="http://www.w3.org/2000/svg"
   xmlns:xlink="http://www.w3.org/1999/xlink"
   xmlns:sodipodi="http://sodipodi.sourceforge.net/DTD/sodipodi-0.dtd"
   xmlns:inkscape="http://www.inkscape.org/namespaces/inkscape"
   width="93.646873mm"
   height="43.578205mm"
   viewBox="0 0 331.81958 154.41096"
   id="svg2"
   version="1.1"
   inkscape:version="0.91 r13725"
   sodipodi:docname="dotviewer_logo.svg"
   inkscape:export-filename="C:\Users\rmabit\OneDrive\dev\dot-language-viewer\image\dotviewer_logo.png"
   inkscape:export-xdpi="90"
   inkscape:export-ydpi="90">
  <defs
     id="defs4">
    <marker
       inkscape:stockid="SquareL"
       orient="auto"
       refY="0.0"
       refX="0.0"
       id="SquareL"
       style="overflow:visible"
       inkscape:isstock="true">
      <path
         id="path5210"
         d="M -5.0,-5.0 L -5.0,5.0 L 5.0,5.0 L 5.0,-5.0 L -5.0,-5.0 z "
         style="fill-rule:evenodd;stroke:#000000;stroke-width:1.0pt"
         transform="scale(0.8)" />
    </marker>
    <linearGradient
       inkscape:collect="always"
       id="linearGradient4835">
      <stop
         style="stop-color:#a22454;stop-opacity:1;"
         offset="0"
         id="stop4837" />
      <stop
         style="stop-color:#a22454;stop-opacity:0;"
         offset="1"
         id="stop4839" />
    </linearGradient>
    <marker
       inkscape:stockid="Arrow1Lstart"
       orient="auto"
       refY="0"
       refX="0"
       id="Arrow1Lstart"
       style="overflow:visible"
       inkscape:isstock="true">
      <path
         id="path7506"
         d="M 0,0 5,-5 -12.5,0 5,5 0,0 Z"
         style="fill:#0000ff;fill-opacity:1;fill-rule:evenodd;stroke:#000000;stroke-width:1pt;stroke-opacity:1"
         transform="matrix(0.8,0,0,0.8,10,0)"
         inkscape:connector-curvature="0" />
    </marker>
    <marker
       inkscape:stockid="DotL"
       orient="auto"
       refY="0"
       refX="0"
       id="DotL"
       style="overflow:visible"
       inkscape:isstock="true">
      <path
         id="path7567"
         d="m -2.5,-1 c 0,2.76 -2.24,5 -5,5 -2.76,0 -5,-2.24 -5,-5 0,-2.76 2.24,-5 5,-5 2.76,0 5,2.24 5,5 z"
         style="fill:#0000ff;fill-opacity:1;fill-rule:evenodd;stroke:#000000;stroke-width:1pt;stroke-opacity:1"
         transform="matrix(0.8,0,0,0.8,5.92,0.8)"
         inkscape:connector-curvature="0" />
    </marker>
    <filter
       inkscape:collect="always"
       style="color-interpolation-filters:sRGB"
       id="filter5513"
       x="-0.050890934"
       width="1.1017818"
       y="-0.052329104"
       height="1.1046582">
      <feGaussianBlur
         inkscape:collect="always"
         stdDeviation="0.77457866"
         id="feGaussianBlur5515" />
    </filter>
    <filter
       inkscape:collect="always"
       style="color-interpolation-filters:sRGB"
       id="filter6153"
       x="-0.060174707"
       width="1.1203494"
       y="-0.062260836"
       height="1.1245217">
      <feGaussianBlur
         inkscape:collect="always"
         stdDeviation="0.42860397"
         id="feGaussianBlur6155" />
    </filter>
    <filter
       inkscape:collect="always"
       style="color-interpolation-filters:sRGB"
       id="filter6761"
       x="-0.26744437"
       width="1.5348887"
       y="-0.35754478"
       height="1.7150896">
      <feGaussianBlur
         inkscape:collect="always"
         stdDeviation="0.92060448"
         id="feGaussianBlur6763" />
    </filter>
    <linearGradient
       inkscape:collect="always"
       xlink:href="#linearGradient4835"
       id="linearGradient4841"
       x1="240.52515"
       y1="120.02298"
       x2="240.52515"
       y2="163.94081"
       gradientUnits="userSpaceOnUse" />
  </defs>
  <sodipodi:namedview
     id="base"
     pagecolor="#ffffff"
     bordercolor="#666666"
     borderopacity="1.0"
     inkscape:pageopacity="0.0"
     inkscape:pageshadow="2"
     inkscape:zoom="1.3968432"
     inkscape:cx="211.35505"
     inkscape:cy="154.50143"
     inkscape:document-units="px"
     inkscape:current-layer="layer1"
     showgrid="false"
     showguides="false"
     inkscape:window-width="1536"
     inkscape:window-height="811"
     inkscape:window-x="-7"
     inkscape:window-y="-7"
     inkscape:window-maximized="1"
     inkscape:snap-others="true"
     inkscape:snap-nodes="true"
     fit-margin-top="2.7755576e-017"
     fit-margin-left="0"
     fit-margin-right="0"
     fit-margin-bottom="0" />
  <metadata
     id="metadata7">
    <rdf:RDF>
      <cc:Work
         rdf:about="">
        <dc:format>image/svg+xml</dc:format>
        <dc:type
           rdf:resource="http://purl.org/dc/dcmitype/StillImage" />
        <dc:title></dc:title>
      </cc:Work>
    </rdf:RDF>
  </metadata>
  <g
     inkscape:label="レイヤー 1"
     inkscape:groupmode="layer"
     id="layer1"
     transform="translate(-2.4390458,-522.48416)">
    <flowRoot
       xml:space="preserve"
       id="flowRoot4197"
       style="font-style:normal;font-variant:normal;font-weight:normal;font-stretch:normal;font-size:40px;line-height:125%;font-family:Meiryo;-inkscape-font-specification:'Meiryo, Normal';text-align:start;letter-spacing:0px;word-spacing:0px;writing-mode:lr-tb;text-anchor:start;fill:#000000;fill-opacity:1;stroke:none;stroke-width:1px;stroke-linecap:butt;stroke-linejoin:miter;stroke-opacity:1"><flowRegion
         id="flowRegion4199"><rect
           id="rect4201"
           width="78.048782"
           height="78.048782"
           x="213.41463"
           y="104.80123" /></flowRegion><flowPara
         id="flowPara4203" /></flowRoot>    <flowRoot
       xml:space="preserve"
       id="flowRoot4787"
       style="font-style:normal;font-variant:normal;font-weight:normal;font-stretch:normal;font-size:40px;line-height:125%;font-family:Meiryo;-inkscape-font-specification:'Meiryo, Normal';text-align:start;letter-spacing:0px;word-spacing:0px;writing-mode:lr-tb;text-anchor:start;fill:#000000;fill-opacity:1;stroke:none;stroke-width:1px;stroke-linecap:butt;stroke-linejoin:miter;stroke-opacity:1"><flowRegion
         id="flowRegion4789"><rect
           id="rect4791"
           width="264.73389"
           height="106.92834"
           x="187.1246"
           y="143.47128" /></flowRegion><flowPara
         id="flowPara4793"></flowPara></flowRoot>    <g
       id="g4843"
       transform="translate(-48.78049,417.07318)">
      <path
         sodipodi:nodetypes="cc"
         inkscape:connector-curvature="0"
         id="path6847"
         d="m 99.869346,144.85609 c -11.113675,6.83344 -20.649563,36.02076 -20.088018,48.05742"
         style="fill:none;fill-rule:evenodd;stroke:#000000;stroke-width:6.5;stroke-linecap:butt;stroke-linejoin:miter;stroke-miterlimit:4;stroke-dasharray:none;stroke-opacity:1" />
      <ellipse
         ry="23.780487"
         rx="24.390244"
         cy="129.19147"
         cx="114.63414"
         id="path4138-5-8"
         style="fill:#c0004a;fill-opacity:1;fill-rule:evenodd;stroke:none;stroke-width:1px;stroke-linecap:butt;stroke-linejoin:miter;stroke-opacity:1" />
      <ellipse
         ry="17.762474"
         rx="18.264441"
         cy="125.03908"
         cx="117.27624"
         id="path4138-5-8-4"
         style="fill:#ce2b73;fill-opacity:1;fill-rule:evenodd;stroke:none;stroke-width:0.74788791px;stroke-linecap:butt;stroke-linejoin:miter;stroke-opacity:1;filter:url(#filter5513)" />
      <ellipse
         ry="8.260807"
         rx="8.5471916"
         cy="117.70931"
         cx="121.15672"
         id="path4138-5-8-3"
         style="fill:#d83099;fill-opacity:1;fill-rule:evenodd;stroke:none;stroke-width:0.34890285px;stroke-linecap:butt;stroke-linejoin:miter;stroke-opacity:1;filter:url(#filter6153)" />
      <ellipse
         ry="3.0897539"
         rx="4.1306734"
         cy="113.39769"
         cx="124.17485"
         id="path4138-5-8-3-0"
         style="fill:#ececec;fill-opacity:1;fill-rule:evenodd;stroke:none;stroke-width:0.12752353px;stroke-linecap:butt;stroke-linejoin:miter;stroke-opacity:1;filter:url(#filter6761)" />
      <ellipse
         style="fill:#0068c0;fill-opacity:1;fill-rule:evenodd;stroke:none;stroke-width:1px;stroke-linecap:butt;stroke-linejoin:miter;stroke-opacity:1"
         id="ellipse6783"
         cx="75.609749"
         cy="213.3378"
         rx="24.390244"
         ry="23.780487" />
      <ellipse
         style="fill:#2b88ce;fill-opacity:1;fill-rule:evenodd;stroke:none;stroke-width:0.74788791px;stroke-linecap:butt;stroke-linejoin:miter;stroke-opacity:1;filter:url(#filter5513)"
         id="ellipse6785"
         cx="78.251846"
         cy="209.18542"
         rx="18.264441"
         ry="17.762474" />
      <ellipse
         style="fill:#3096d8;fill-opacity:1;fill-rule:evenodd;stroke:none;stroke-width:0.34890285px;stroke-linecap:butt;stroke-linejoin:miter;stroke-opacity:1;filter:url(#filter6153)"
         id="ellipse6787"
         cx="82.132332"
         cy="201.85565"
         rx="8.5471916"
         ry="8.260807" />
      <ellipse
         style="fill:#ececec;fill-opacity:1;fill-rule:evenodd;stroke:none;stroke-width:0.12752353px;stroke-linecap:butt;stroke-linejoin:miter;stroke-opacity:1;filter:url(#filter6761)"
         id="ellipse6789"
         cx="85.150459"
         cy="197.54404"
         rx="4.1306734"
         ry="3.0897539" />
      <path
         sodipodi:nodetypes="cc"
         inkscape:connector-curvature="0"
         id="path7808"
         d="m 126.21951,242.60608 c -20.7317,7.92684 -30.487801,-3.65852 -36.585362,-14.63413"
         style="fill:none;fill-rule:evenodd;stroke:#000000;stroke-width:6.5;stroke-linecap:round;stroke-linejoin:miter;stroke-miterlimit:4;stroke-dasharray:none;stroke-opacity:1" />
      <ellipse
         ry="23.780487"
         rx="24.390244"
         cy="236.04146"
         cx="146.75159"
         id="ellipse6809"
         style="fill:#30c000;fill-opacity:1;fill-rule:evenodd;stroke:none;stroke-width:1px;stroke-linecap:butt;stroke-linejoin:miter;stroke-opacity:1" />
      <ellipse
         ry="17.762474"
         rx="18.264441"
         cy="231.88908"
         cx="149.39369"
         id="ellipse6811"
         style="fill:#57ce2b;fill-opacity:1;fill-rule:evenodd;stroke:none;stroke-width:0.74788791px;stroke-linecap:butt;stroke-linejoin:miter;stroke-opacity:1;filter:url(#filter5513)" />
      <ellipse
         ry="8.260807"
         rx="8.5471916"
         cy="224.55931"
         cx="153.27417"
         id="ellipse6813"
         style="fill:#59d830;fill-opacity:1;fill-rule:evenodd;stroke:none;stroke-width:0.34890285px;stroke-linecap:butt;stroke-linejoin:miter;stroke-opacity:1;filter:url(#filter6153)" />
      <ellipse
         ry="3.0897539"
         rx="4.1306734"
         cy="220.2477"
         cx="156.29231"
         id="ellipse6815"
         style="fill:#ececec;fill-opacity:1;fill-rule:evenodd;stroke:none;stroke-width:0.12752353px;stroke-linecap:butt;stroke-linejoin:miter;stroke-opacity:1;filter:url(#filter6761)" />
      <path
         sodipodi:nodetypes="cc"
         inkscape:connector-curvature="0"
         id="path7500"
         d="M 131.70732,144.43535 C 142.68293,162.72804 150,184.67926 150,213.33779"
         style="fill:none;fill-opacity:1;fill-rule:evenodd;stroke:#000000;stroke-width:6.5;stroke-linecap:round;stroke-linejoin:miter;stroke-miterlimit:4;stroke-dasharray:none;stroke-opacity:1" />
    </g>
    <g
       transform="matrix(2.6029588,0,0,4.2411539,-398.91342,16.961374)"
       style="font-style:normal;font-variant:normal;font-weight:800;font-stretch:normal;font-size:40px;line-height:125%;font-family:'07NikumaruFont';-inkscape-font-specification:'07NikumaruFont, Ultra-Bold';text-align:start;letter-spacing:0px;word-spacing:0px;writing-mode:lr-tb;text-anchor:start;fill:#000000;fill-opacity:1;stroke:none;stroke-width:1px;stroke-linecap:butt;stroke-linejoin:miter;stroke-opacity:1"
       id="flowRoot4795">
      <path
         inkscape:connector-curvature="0"
         d="m 210.93398,122.93852 c -1.64,0 -5.88,0.12 -7.24,0.92 -2.72,1.6 -2.72,9.84 -2.72,12.68 0,3.24 -0.4,13.24 3.32,14.6 1.96,0.72 4.56,0.72 6.64,0.72 8.08,0 14.68,-6.36 14.68,-14.52 0,-8.32 -6.44,-14.4 -14.68,-14.4 z m 6.88,13.8 c 0,5.36 -1.4,9.12 -7.48,9.12 -1.56,0 -1.44,-5.84 -1.44,-6.96 0,-2.48 0.12,-5 0.12,-7.48 0,-0.4 0.04,-0.76 0.16,-1.16 0.24,-0.8 0.56,-1.32 1.48,-1.32 5.08,0 7.16,2.96 7.16,7.8 z"
         style="fill:#000000;fill-opacity:1;stroke:none"
         id="path4952" />
      <path
         inkscape:connector-curvature="0"
         d="m 241.10086,122.89852 c -7.96,0 -13.88,6.68 -13.88,14.48 0,8.32 6.36,14.52 14.64,14.52 7.88,0 14.04,-6.8 14.04,-14.52 0,-8.44 -6.48,-14.48 -14.8,-14.48 z m 0.8,22.6 c -4.36,0 -6.36,-3.24 -6.36,-7.28 0,-4.08 0.96,-8.92 6,-8.92 5.16,0 6,4.8 6,8.92 0,3.36 -1.8,7.28 -5.64,7.28 z"
         style="fill:#000000;fill-opacity:1;stroke:none"
         id="path4954" />
      <path
         inkscape:connector-curvature="0"
         d="m 281.65523,128.21852 c 0,-0.44 -0.12,-2.12 -0.24,-2.48 -1.08,-2.96 -10.2,-2.48 -12.64,-2.48 -2.08,0 -7.84,0.12 -9.32,1.56 -0.6,0.6 -0.76,2.48 -0.76,3.32 0,3.8 6.24,-0.28 7.04,4 0.16,0.96 0.2,1.96 0.2,2.92 0,2.04 -0.08,4.04 -0.08,6.08 0,2.16 -0.04,8.8 1.96,10 0.68,0.4 1.68,0.36 2.48,0.36 0.92,0 2.04,0.04 2.76,-0.64 1.28,-1.24 1.4,-9.56 1.4,-11.56 0,-1.64 -0.08,-3.24 -0.08,-4.88 0,-2.4 0.48,-4.6 3.36,-4.6 0.6,0 1.16,0.08 1.76,0.08 1.16,0 2.16,-0.32 2.16,-1.68 z"
         style="fill:#000000;fill-opacity:1;stroke:none"
         id="path4956" />
    </g>
  </g>
</svg>
