<?xml version="1.0" encoding="UTF-8" standalone="no"?>
<!-- Generator: Adobe Illustrator 16.1.0, SVG Export Plug-In . SVG Version: 6.00 Build 0)  -->

<svg
   xmlns:dc="http://purl.org/dc/elements/1.1/"
   xmlns:cc="http://creativecommons.org/ns#"
   xmlns:rdf="http://www.w3.org/1999/02/22-rdf-syntax-ns#"
   xmlns:svg="http://www.w3.org/2000/svg"
   xmlns="http://www.w3.org/2000/svg"
   xmlns:sodipodi="http://sodipodi.sourceforge.net/DTD/sodipodi-0.dtd"
   xmlns:inkscape="http://www.inkscape.org/namespaces/inkscape"
   version="1.1"
   id="レイヤー_1"
   x="0px"
   y="0px"
   width="16"
   height="16"
   viewBox="0 0 16 16"
   enable-background="new 0 0 480 727.5"
   xml:space="preserve"
   inkscape:version="0.91 r13725"
   sodipodi:docname="preview.svg"><metadata
     id="metadata329"><rdf:RDF><cc:Work
         rdf:about=""><dc:format>image/svg+xml</dc:format><dc:type
           rdf:resource="http://purl.org/dc/dcmitype/StillImage" /><dc:title></dc:title></cc:Work></rdf:RDF></metadata><defs
     id="defs327" /><sodipodi:namedview
     pagecolor="#ffffff"
     bordercolor="#666666"
     borderopacity="1"
     objecttolerance="10"
     gridtolerance="10"
     guidetolerance="10"
     inkscape:pageopacity="0"
     inkscape:pageshadow="2"
     inkscape:window-width="1414"
     inkscape:window-height="855"
     id="namedview325"
     showgrid="false"
     inkscape:zoom="40.5"
     inkscape:cx="8"
     inkscape:cy="8"
     inkscape:window-x="26"
     inkscape:window-y="1"
     inkscape:window-maximized="1"
     inkscape:current-layer="レイヤー_1" /><path
     d="m 15.597733,12.702363 -1.682798,-1.46328 c 0.375313,-0.525646 0.598732,-1.167815 0.598732,-1.8633018 0,-1.7746102 -1.438051,-3.2131813 -3.213181,-3.2131813 -1.7743507,0 -3.2131825,1.4385711 -3.2131825,3.2131813 0,1.7746108 1.4385717,3.2131818 3.2131825,3.2131818 0.649711,0 1.252604,-0.194289 1.758484,-0.525647 l 1.253386,1.5179 c 0.371671,0.384676 1.003956,0.4523 1.284856,0.175041 0.220039,-0.219257 0.28142,-0.741263 5.34e-4,-1.053894 z M 8.7176316,9.3760413 c 0,-1.3896116 1.0074263,-2.6198088 2.5825944,-2.6198088 1.575947,0 2.584404,1.1184698 2.601201,2.6198088 0.01638,1.4640727 -1.025514,2.6384167 -2.601201,2.6384167 -1.5007378,0 -2.5825944,-1.044121 -2.5825944,-2.6384167 z"
     id="path195"
     inkscape:connector-curvature="0"
     style="fill:#333333"
     sodipodi:nodetypes="ccssssccccsssss" /><path
     d="m 9.4418464,4.9277656 c 0,0.1931494 -0.1485024,0.3499013 -0.3314602,0.3499013 l -5.6920851,0 c -0.1839284,0 -0.3324299,-0.1567519 -0.3324299,-0.3499013 l 0,-0.081045 c 0,-0.1931494 0.1485015,-0.3499013 0.3324299,-0.3499013 l 5.6920851,0 c 0.1829578,0 0.3314602,0.1567519 0.3314602,0.3499013 l 0,0.081045 z"
     id="path269"
     inkscape:connector-curvature="0"
     style="fill:#333333" /><path
     d="m 9.4418464,7.2460441 c 0,0.1931495 -0.1485024,0.3499014 -0.3314602,0.3499014 l -5.6920851,0 c -0.1839284,0 -0.3324299,-0.1567519 -0.3324299,-0.3499014 l 0,-0.081045 c 0,-0.1931494 0.1485015,-0.3499014 0.3324299,-0.3499014 l 5.6920851,0 c 0.1829578,0 0.3314602,0.156752 0.3314602,0.3499014 l 0,0.081045 z"
     id="path271"
     inkscape:connector-curvature="0"
     style="fill:#333333" /><path
     d="m 9.4418464,9.5643228 c 0,0.1931495 -0.1485024,0.3499014 -0.3314602,0.3499014 l -5.6920851,0 c -0.1839284,0 -0.3324299,-0.1567519 -0.3324299,-0.3499014 l 0,-0.081045 c 0,-0.1931495 0.1485015,-0.3499014 0.3324299,-0.3499014 l 5.6920851,0 c 0.1829578,0 0.3314602,0.1567519 0.3314602,0.3499014 l 0,0.081045 z"
     id="path273"
     inkscape:connector-curvature="0"
     style="fill:#333333" /><path
     d="m 11.672771,0.95558424 -10.81879539,0 c -0.22906192,0 -0.413961,0.18489936 -0.413961,0.41299036 l 0,13.2113244 c 0,0.228091 0.18489908,0.41299 0.413961,0.41299 l 8.96720249,0 2.2645839,-2.437695 0,-11.1861341 c 0,-0.2285763 -0.1849,-0.41347566 -0.412991,-0.41347566 z M 1.1682609,1.612936 11.358971,1.5434966 l 0.03472,10.8065384 -1.329475,0.243037 c -0.224373,0.04101 -0.4199181,0.184977 -0.4139613,0.41299 L 9.6849709,14.335053 1.1330544,14.161455 1.0988215,1.7170944 Z"
     id="path275"
     inkscape:connector-curvature="0"
     style="fill:#333333"
     sodipodi:nodetypes="sssssccsscccsscccc" /><line
     x1="10.339654"
     y1="13.53699"
     x2="10.62986"
     y2="13.246784"
     id="line277"
     style="fill:none" /><text
     font-size="20"
     letter-spacing="-3"
     id="text301"
     style="font-size:20px;font-family:iroha-25icho;letter-spacing:-3"
     x="109.7107"
     y="-667.54388" />
<text
     font-size="20"
     letter-spacing="-2"
     id="text309"
     style="font-size:20px;font-family:iroha-25icho;letter-spacing:-2"
     x="157.7292"
     y="-667.54388" />
<path
     style="fill:#80e5ff"
     d="M 10.786898,11.953166 C 10.454711,11.88967 10.313101,11.841864 10.044425,11.702511 9.4394066,11.388712 9.0148419,10.843967 8.8246475,10.137452 8.7270074,9.7747474 8.7191743,9.0745691 8.8088033,8.7210381 9.0223819,7.878593 9.6517651,7.1783287 10.427197,6.9203798 c 1.042421,-0.3467631 2.211027,-0.052817 2.853543,0.7177691 0.215704,0.2586977 0.450668,0.7441866 0.532494,1.1002489 0.0864,0.37596 0.0792,1.0099304 -0.01557,1.3694062 -0.235348,0.892812 -0.868249,1.542632 -1.744257,1.790887 -0.329616,0.09341 -0.928135,0.119155 -1.266513,0.05448 z"
     id="path3849"
     inkscape:connector-curvature="0" /></svg>