<?xml version="1.0" encoding="UTF-8" standalone="no"?>
<!-- Generator: Adobe Illustrator 16.1.0, SVG Export Plug-In . SVG Version: 6.00 Build 0)  -->

<svg
   xmlns:dc="http://purl.org/dc/elements/1.1/"
   xmlns:cc="http://creativecommons.org/ns#"
   xmlns:rdf="http://www.w3.org/1999/02/22-rdf-syntax-ns#"
   xmlns:svg="http://www.w3.org/2000/svg"
   xmlns="http://www.w3.org/2000/svg"
   xmlns:sodipodi="http://sodipodi.sourceforge.net/DTD/sodipodi-0.dtd"
   xmlns:inkscape="http://www.inkscape.org/namespaces/inkscape"
   version="1.1"
   id="レイヤー_1"
   x="0px"
   y="0px"
   width="16"
   height="16"
   viewBox="0 0 16 16"
   enable-background="new 0 0 480 727.5"
   xml:space="preserve"
   inkscape:version="0.91 r13725"
   sodipodi:docname="preview_inverse.svg"><metadata
     id="metadata329"><rdf:RDF><cc:Work
         rdf:about=""><dc:format>image/svg+xml</dc:format><dc:type
           rdf:resource="http://purl.org/dc/dcmitype/StillImage" /><dc:title></dc:title></cc:Work></rdf:RDF></metadata><defs
     id="defs327" /><sodipodi:namedview
     pagecolor="#ffffff"
     bordercolor="#666666"
     borderopacity="1"
     objecttolerance="10"
     gridtolerance="10"
     guidetolerance="10"
     inkscape:pageopacity="0"
     inkscape:pageshadow="2"
     inkscape:window-width="1414"
     inkscape:window-height="855"
     id="namedview325"
     showgrid="false"
     inkscape:zoom="40.5"
     inkscape:cx="8"
     inkscape:cy="8"
     inkscape:window-x="26"
     inkscape:window-y="1"
     inkscape:window-maximized="1"
     inkscape:current-layer="レイヤー_1" /><path
     d="m 15.597733,12.702363 -1.682798,-1.46328 c 0.375313,-0.525646 0.598732,-1.167815 0.598732,-1.8633018 0,-1.7746102 -1.438051,-3.2131813 -3.213181,-3.2131813 -1.7743507,0 -3.2131825,1.4385711 -3.2131825,3.2131813 0,1.7746108 1.4385717,3.2131818 3.2131825,3.2131818 0.649711,0 1.252604,-0.194289 1.758484,-0.525647 l 1.253386,1.5179 c 0.371671,0.384676 1.003956,0.4523 1.284856,0.175041 0.220039,-0.219257 0.28142,-0.741263 5.34e-4,-1.053894 z M 8.7176316,9.3760413 c 0,-1.3896116 1.0074263,-2.6198088 2.5825944,-2.6198088 1.575947,0 2.584404,1.1184698 2.601201,2.6198088 0.01638,1.4640727 -1.025514,2.6384167 -2.601201,2.6384167 -1.5007378,0 -2.5825944,-1.044121 -2.5825944,-2.6384167 z"
     id="path195"
     inkscape:connector-curvature="0"
     style="fill:#333333"
     sodipodi:nodetypes="ccssssccccsssss" /><path
     d="m 9.4418464,4.9277656 c 0,0.1931494 -0.1485024,0.3499013 -0.3314602,0.3499013 l -5.6920851,0 c -0.1839284,0 -0.3324299,-0.1567519 -0.3324299,-0.3499013 l 0,-0.081045 c 0,-0.1931494 0.1485015,-0.3499013 0.3324299,-0.3499013 l 5.6920851,0 c 0.1829578,0 0.3314602,0.1567519 0.3314602,0.3499013 l 0,0.081045 z"
     id="path269"
     inkscape:connector-curvature="0"
     style="fill:#333333" /><path
     d="m 9.4418464,7.2460441 c 0,0.1931495 -0.1485024,0.3499014 -0.3314602,0.3499014 l -5.6920851,0 c -0.1839284,0 -0.3324299,-0.1567519 -0.3324299,-0.3499014 l 0,-0.081045 c 0,-0.1931494 0.1485015,-0.3499014 0.3324299,-0.3499014 l 5.6920851,0 c 0.1829578,0 0.3314602,0.156752 0.3314602,0.3499014 l 0,0.081045 z"
     id="path271"
     inkscape:connector-curvature="0"
     style="fill:#333333" /><path
     d="m 9.4418464,9.5643228 c 0,0.1931495 -0.1485024,0.3499014 -0.3314602,0.3499014 l -5.6920851,0 c -0.1839284,0 -0.3324299,-0.1567519 -0.3324299,-0.3499014 l 0,-0.081045 c 0,-0.1931495 0.1485015,-0.3499014 0.3324299,-0.3499014 l 5.6920851,0 c 0.1829578,0 0.3314602,0.1567519 0.3314602,0.3499014 l 0,0.081045 z"
     id="path273"
     inkscape:connector-curvature="0"
     style="fill:#333333" /><path
     d="m 11.672771,0.95558424 -10.81879539,0 c -0.22906192,0 -0.413961,0.18489936 -0.413961,0.41299036 l 0,13.2113244 c 0,0.228091 0.18489908,0.41299 0.413961,0.41299 l 8.96720249,0 2.2645839,-2.437695 0,-11.1861341 c 0,-0.2285763 -0.1849,-0.41347566 -0.412991,-0.41347566 z M 1.1682609,1.612936 11.358971,1.5434966 l 0.03472,10.8065384 -1.329475,0.243037 c -0.224373,0.04101 -0.4199181,0.184977 -0.4139613,0.41299 L 9.6849709,14.335053 1.1330544,14.161455 1.0988215,1.7170944 Z"
     id="path275"
     inkscape:connector-curvature="0"
     style="fill:#333333"
     sodipodi:nodetypes="sssssccsscccsscccc" /><line
     x1="10.339654"
     y1="13.53699"
     x2="10.62986"
     y2="13.246784"
     id="line277"
     style="fill:none" /><text
     font-size="20"
     letter-spacing="-3"
     id="text301"
     style="font-size:20px;font-family:iroha-25icho;letter-spacing:-3"
     x="109.7107"
     y="-667.54388" />
<text
     font-size="20"
     letter-spacing="-2"
     id="text309"
     style="font-size:20px;font-family:iroha-25icho;letter-spacing:-2"
     x="157.7292"
     y="-667.54388" />
<path
     style="fill:#80e5ff"
     d="M 10.786898,11.953166 C 10.454711,11.88967 10.313101,11.841864 10.044425,11.702511 9.4394066,11.388712 9.0148419,10.843967 8.8246475,10.137452 8.7270074,9.7747474 8.7191743,9.0745691 8.8088033,8.7210381 9.0223819,7.878593 9.6517651,7.1783287 10.427197,6.9203798 c 1.042421,-0.3467631 2.211027,-0.052817 2.853543,0.7177691 0.215704,0.2586977 0.450668,0.7441866 0.532494,1.1002489 0.0864,0.37596 0.0792,1.0099304 -0.01557,1.3694062 -0.235348,0.892812 -0.868249,1.542632 -1.744257,1.790887 -0.329616,0.09341 -0.928135,0.119155 -1.266513,0.05448 z"
     id="path3849"
     inkscape:connector-curvature="0" /><path
     style="fill:#b7c8c4"
     d="m 5.3333333,14.235601 c -1.7450617,-0.03779 -3.3981882,-0.0696 -3.6736144,-0.07068 -0.3776526,-0.0015 -0.5031299,-0.0095 -0.5103531,-0.03282 -0.00527,-0.01698 -0.016052,-2.819753 -0.023965,-6.2283953 -0.011685,-5.033458 -0.00842,-6.2051721 0.0174,-6.238213 0.029175,-0.037339 0.4019897,-0.042902 4.5370858,-0.067701 2.4779143,-0.01486 4.7691878,-0.032143 5.0917188,-0.038407 l 0.58642,-0.011388 0,2.3038507 0,2.3038508 -0.290124,0.014811 C 10.507386,6.199123 9.9884205,6.3777328 9.4831686,6.715917 9.3203719,6.8248832 9.2690805,6.8481002 9.2333696,6.8289884 9.204937,6.8137716 8.1168007,6.8049383 6.2707869,6.8049383 c -3.2330647,0 -3.0293735,-0.010388 -3.1345952,0.1598642 -0.036328,0.05878 -0.049747,0.1230963 -0.04968,0.2381118 1.038e-4,0.1764543 0.049524,0.2847247 0.1642961,0.3599417 0.064144,0.042037 0.2167398,0.045248 2.7037687,0.056897 l 2.6357884,0.012346 -0.076956,0.1234568 C 8.3089081,8.0836272 8.0987654,8.7357195 8.0987654,9.0422338 l 0,0.083692 -2.3888889,9.88e-5 c -2.3257806,9.88e-5 -2.3909771,0.00137 -2.467937,0.048291 -0.1111763,0.067788 -0.1555363,0.1681442 -0.1554275,0.3516251 6.67e-5,0.1106899 0.013992,0.1783435 0.048291,0.2345953 0.1004298,0.1647042 -0.052503,0.1555134 2.587826,0.1555134 l 2.3917479,0 0.064387,0.2530866 c 0.2715167,1.067249 1.0781785,1.933805 2.108609,2.265173 l 0.213186,0.06856 -0.244107,0.04218 c -0.3074824,0.05313 -0.481728,0.13279 -0.5575811,0.254913 -0.054817,0.08826 -0.056556,0.107972 -0.050529,0.572884 0.00343,0.264814 0.01306,0.584259 0.021393,0.709876 l 0.015151,0.228395 -0.589356,-0.0034 C 8.771383,14.305846 7.0783951,14.273395 5.3333333,14.235601 Z M 9.2783022,5.2375763 C 9.5392558,5.0797751 9.4969998,4.5898588 9.2154005,4.508296 9.1513042,4.4897311 8.2410106,4.483881 6.2098765,4.488981 3.3405328,4.4961852 3.295297,4.4970462 3.2304791,4.545679 3.123647,4.6258353 3.0864198,4.71168 3.0864198,4.8778753 c 0,0.2229437 0.085034,0.3567928 0.2520751,0.3967852 0.044692,0.0107 1.3812582,0.017723 2.9701471,0.015607 2.8310279,-0.00377 2.8905066,-0.00483 2.9696602,-0.052691 z"
     id="path3917"
     inkscape:connector-curvature="0" /><path
     style="fill:#b7c8c4"
     d="M 10.938272,11.963305 C 10.635784,11.930228 10.374665,11.85158 10.08642,11.706728 9.6136878,11.469166 9.2506464,11.105411 9.026221,10.644444 8.8097621,10.199841 8.752969,9.8863193 8.7714853,9.2381943 8.7841976,8.793226 8.8205911,8.6215496 8.9773473,8.267096 9.120391,7.9436488 9.4476152,7.5271662 9.7285354,7.3110031 10.192749,6.9537988 10.677164,6.7963214 11.308642,6.7973295 c 0.663866,0.00106 1.198352,0.1771685 1.655647,0.5455219 0.244407,0.1968712 0.425104,0.4257713 0.588933,0.7460375 0.239505,0.468205 0.303987,0.7496329 0.302672,1.3209876 -9.85e-4,0.4276467 -0.03662,0.6451905 -0.159105,0.9712835 -0.22575,0.601014 -0.640765,1.058312 -1.215308,1.339129 -0.292815,0.143118 -0.540062,0.208164 -0.925925,0.243594 -0.313322,0.02877 -0.349216,0.02874 -0.617284,-5.78e-4 z"
     id="path3919"
     inkscape:connector-curvature="0" /></svg>